<svg width="14" height="15" viewBox="0 0 14 15" fill="none" xmlns="http://www.w3.org/2000/svg">
<path d="M13.3151 6.13502L7.53259 0.225023C7.46286 0.154726 7.37991 0.0989305 7.28852 0.060854C7.19712 0.0227775 7.0991 0.00317383 7.00009 0.00317383C6.90108 0.00317383 6.80305 0.0227775 6.71165 0.060854C6.62026 0.0989305 6.53731 0.154726 6.46759 0.225023L0.685086 6.14252C0.545164 6.28357 0.434657 6.45102 0.359983 6.63513C0.285308 6.81924 0.247953 7.01635 0.250087 7.21502V13.5C0.249505 13.884 0.396166 14.2535 0.659867 14.5325C0.923568 14.8116 1.28423 14.9789 1.66759 15H4.00009V8.25002C4.00009 8.05111 4.0791 7.86034 4.21976 7.71969C4.36041 7.57904 4.55117 7.50002 4.75009 7.50002H9.25009C9.449 7.50002 9.63976 7.57904 9.78042 7.71969C9.92107 7.86034 10.0001 8.05111 10.0001 8.25002V15H12.3326C12.7159 14.9789 13.0766 14.8116 13.3403 14.5325C13.604 14.2535 13.7507 13.884 13.7501 13.5V7.21502C13.7507 6.81222 13.5947 6.42496 13.3151 6.13502Z" fill="#D0C0FF"/>
</svg>
